<svg xmlns="http://www.w3.org/2000/svg" width="35.777" height="20" viewBox="0 0 35.777 20"><defs><style>.a{fill:#767676;}</style></defs><title>img_icon_bug_tld-live</title><path class="a" d="M20.8985,6.7753c0,.7922-.0138,1.5409.0039,2.2888.0168.7082.1179,2.0476.1547,2.7552a.2954.2954,0,0,0,.03.0823.2551.2551,0,0,0,.0556-.0467c.3649-.5517.93-1.5023,1.3056-2.2064.61-1.0327.9148-1.59,1.4552-2.347.3023-.4235.5117-.8486.8325-1.2592.1495-.1915.2792-.3984.425-.5929.0365-.0486.1156-.0666.1485-.1163.0586-.0886.0944-.1921.1459-.2859a.1182.1182,0,0,1,.0742-.039c.03-.0066.0386-.0275.024-.0494a.0752.0752,0,0,1,.0007-.0715c.053-.051.1128-.0952.1705-.1414.01-.0082.0282-.0115.0328-.0216a.776.776,0,0,1,.104-.226,6.2956,6.2956,0,0,1,.5411-.4864c.0386-.0308.132.0072.2.0134-.0154.041-.0316.0817-.0459.1231-.0057.0163-.0152.0456-.01.05.2047.14.12.302.0714.4894a.2942.2942,0,0,0,.1463.3787c.0278.0112.071.042.0691.06-.0313.3011.1574.1731.2681.1266.0443-.0186.1265-.0683.1433-.0515s-.0353.0976-.0567.145c-.02.0443-.0463.08-.0649.125a.9131.9131,0,0,1,.1192-.0384c.0171-.0032.053.0112.0547.0218.008.0494.027.1112.0062.1489-.161.2931-.337.5782-.49.8751-.0243.047.0431.1405.0665.213.0109.0336.0356.0761.0243.1012a4.8233,4.8233,0,0,1-.301.6252c-.2831.4432-.59.8709-.8821,1.3088-.1718.2579-.3415.5179-.4958.7864-.3443.599-.6789,1.2035-1.0164,1.8063q-.6579,1.1753-1.314,2.3514c-.3181.5706-.6424,1.1381-.9459,1.7164a2.4638,2.4638,0,0,0-.1419.5163c-.0048.0184-.0111.0494-.0211.0513a1.0645,1.0645,0,0,1-.2451.0329.4154.4154,0,0,1-.2226-.0613c-.0812-.0625-.1219-.1293-.22-.0077a.2767.2767,0,0,1-.2565.0632,2.7479,2.7479,0,0,1-1.3885-1.1633,5.5873,5.5873,0,0,1-.3848-1.2634c-.1115-.5285-.1822-1.0669-.2458-1.6039-.056-.4724-.0836-.9484-.1132-1.4235-.0274-.4382-.06-.8775-.0558-1.3161.0054-.6169.0384-1.2337.0664-1.85a13.0621,13.0621,0,0,0-.0853-2.3042.42.42,0,0,1,.13-.3335c.0573-.0508.2059-.0034.313.008a1.5018,1.5018,0,0,1,.26.0471c.142.0412.2808.093.4213.1393a3.835,3.835,0,0,1,.4112.1374,1.4227,1.4227,0,0,1,.346.2186,1.1583,1.1583,0,0,1,.321.7713C20.8717,6.3013,20.8815,6.56,20.8985,6.7753Z"></path><path class="a" d="M7.3572,13.7654c.4637-.03.9546-.0626,1.4456-.0936.9344-.0589,1.263-.0476,2.1957-.1272a1.7537,1.7537,0,0,1,1.19.4446.1813.1813,0,0,1-.0388.1579c-.13.0585-.2749.0839-.4061.14-.0616.0266-.1044.0963-.1558.1465.0521.0317.1026.0667.1569.094a1.3791,1.3791,0,0,0,.1419.0534c-.0411.0458-.0738.1154-.1247.1334-.2257.08-.4551.1506-.686.214-.25.0685-.2181.1414-.4727.1835-.514.085-.8208.1446-1.3355.2258-.3657.0576-.7265.1483-1.0932.1971a7.0281,7.0281,0,0,1-1.1271.088,3.3751,3.3751,0,0,1-1.0757-.165,2.51,2.51,0,0,1-1.4677-1.2191,1.5458,1.5458,0,0,1,.0025-1.1368c.1146-.3952.24-.7877.3431-1.1858.1395-.5366.2637-1.0772.3928-1.6165.1836-.7673.3746-1.5331.5459-2.3032.1634-.7349.3042-1.4749.4578-2.2121.0851-.4083.175-.8156.2652-1.2228a.2106.2106,0,0,1,.2861-.1649A4.7438,4.7438,0,0,1,7.57,4.584a4.0491,4.0491,0,0,1,.9446.4943c.1212.092.1349.3557.1544.5458a3.039,3.039,0,0,1-.1609,1.2133c-.1606.5211-.2654,1.0591-.4064,1.5865-.097.3627-.236.7152-.3174,1.0809-.0836.3753-.103.7647-.18,1.1418-.1988.9684-.4136,1.7926-.623,2.7588-.0785.3622-.08.362.2915.36Z"></path><path class="a" d="M14.3963,15.3778a.9922.9922,0,0,1-.1183.2c-.0225.02-.0738.0108-.1119.0088-.0957-.0052-.2228-.0572-.2809-.0128a.8215.8215,0,0,1-.6124.1247.1975.1975,0,0,1-.13-.14,5.5853,5.5853,0,0,1,.135-1.6149c.1112-.4822.1421-.9839.2126-1.4763.086-.6008.1609-1.2038.2692-1.8.12-.6628.2756-1.3188.4094-1.9792.0436-.2148.0588-.4357.1026-.6505.0445-.2186.114-.4316.1621-.6495.0887-.4021.18-.8041.2511-1.21.0736-.4192.12-.8433.1871-1.2638.04-.2558.2052-.3338.45-.2621.1752.0513.3671.0428.5417.0956a5.3891,5.3891,0,0,1,.5364.2305.5751.5751,0,0,0,.1213.0249.47.47,0,0,1,.1479.0286c.6283.3663.5806.8669.5128,1.5184a17.656,17.656,0,0,1-.3872,2.1475c-.1564.6548-.2651,1.2561-.4577,1.9011-.1474.4938-.2262,1.0273-.3735,1.5212-.1027.3443-.1695.7-.2644,1.0468-.0713.2606-.1675.514-.2416.7739-.0364.1275-.0282.27-.0748.3923-.07.1815-.1778.347-.2544.5262a1.1214,1.1214,0,0,0-.1229.4113c-.0008.2419-.3529.646-.5791.6156-.0181-.0024-.0426-.0531-.0429-.0816C14.383,15.6883,14.39,15.5718,14.3963,15.3778Z"></path><path class="a" d="M3.2065,13.801a7.475,7.475,0,0,1-.2648,1.1747c-.0671.2138-.2776.5045-.4521.5341a3.6059,3.6059,0,0,1-1.9187-.2464A1.3192,1.3192,0,0,1,.339,13.2816c.2862-.3827.4167-.4168.9007-.3.1779.0428.3787-.0031.553.0471a9.6568,9.6568,0,0,1,1.1682.4087A.6235.6235,0,0,1,3.2065,13.801Z"></path><path class="a" d="M35.6741,8.825c-.0333-.088-.3425.0034-.3994.0131-.1856.0317-.3731.0528-.56.0764-.0857.0108-.172.0175-.2582.0239-.2843.0211-.5689.0392-.853.0626-.1863.0154-.3715.0442-.5579.0555-.1515.0091-.3048-.0087-.456.0025-.4687.0347-.9368.0766-1.405.1175-.42.0367-.8385.0838-1.2588.1075-.0863.0049-.2429-.0619-.2527-.1164a.8581.8581,0,0,1,.0545-.3776c.0949-.3167.2-.63.3045-.9442.3467-1.0412,1.3991-.8961,2.2741-.9548.7907-.053,1.3745-.0723,2.0835-.1761a2.2753,2.2753,0,0,0,.936-.2631,1.6484,1.6484,0,0,0,.35-.6347c.0754-.1617.1821-.33.0025-.5246a1.3029,1.3029,0,0,1-.1581-.4256c-.0182-.0491-.059-.09-.0768-.1389a.4652.4652,0,0,0-.4506-.2946,3.66,3.66,0,0,1-.4391.0943c-.4631.0456-.9285.0688-1.3909.1195l-.0153.0017c-.4366.04-.8729.0845-1.3074.1422-.4543.06-.9091.1282-1.3563.2266a2.2457,2.2457,0,0,0-.2823.0825l-.0053.0012a3.3381,3.3381,0,0,0-.9064.4124,5.9626,5.9626,0,0,0-.9274,1.3093c-.3039.6962-.5723,1.4082-.842,2.1188-.1573.4144-.3047.8344-.4257,1.2606-.1714.6036-.3161,1.2147-.4684,1.8236a7.19,7.19,0,0,0-.2049.8992,2.7314,2.7314,0,0,0,.5406,1.9874,3.1625,3.1625,0,0,0,2.1775,1.07,3.687,3.687,0,0,0,.9642-.0622,4.379,4.379,0,0,0,.5129-.106c.1886-.0367.28-.0989.4682-.14.36-.0792.63-.1507.99-.2278.0717-.0153.14-.0474.2117-.0612.1746-.0334.3525-.0517.5252-.0927.1875-.0445.3719-.1036.5552-.164.2433-.08.4842-.1679.7261-.2523a.5916.5916,0,0,1,.0669-.0215c.1947-.0429.4393-.0005.4923-.2843.0042-.0225-.0278-.0738-.0448-.0746-.1248-.0059-.2513.0076-.3746-.0073-.04-.0049-.072-.0763-.1077-.1172.0351-.0073.07-.014.1051-.0221a.2864.2864,0,0,0,.0513-.0164c.09-.04.1817-.077.2686-.1231.0832-.0441.279-.0157.1508-.2129a.0867.0867,0,0,1,.0311-.0269,2.066,2.066,0,0,0,.338-.1435c.0759-.0491.2231-.13.0217-.23-.0747-.0371-.1234-.0917-.0047-.1589.0252-.0143.0031-.1214-.0075-.1841a.079.079,0,0,0-.065-.0413c-.3425.0426-.6849.0863-1.0264.1356-.3489.05-.6955.121-1.0456.1578-1.2214.1283-2.4462.255-3.6639.4112-.2114.0271-.5756.0779-.7053-.1347-.1314-.2153.0527-.72.0977-.9577q.1374-.7255.3028-1.4455a.2178.2178,0,0,1,.167-.1231c.2073.0025.4146.05.6213.0468.285-.0048.5694-.0433.8544-.0621.1725-.0114.3481.0032.5182-.0219.6681-.0984,1.3361-.1988,2.0009-.3174.3365-.06.7862-.1616,1.0744-.2328.0159-.0636.016-.1071.03-.1119.08-.0283.1664-.0414.246-.0716a2.2769,2.2769,0,0,0,.2687-.1254c.0811-.0436.2613-.1106.2609-.15s-.252-.1088-.2965-.1525-.0316-.1138-.088-.1574a.1224.1224,0,0,1,.087-.0777c.0388-.0119.08-.0128.12-.0208.0987-.02.2835-.1272.2125-.25a.5216.5216,0,0,1-.064-.1062.1649.1649,0,0,1,.0679-.1664.6659.6659,0,0,1,.1714-.0822,1.1848,1.1848,0,0,0,.4033-.2666.1268.1268,0,0,0,.0478-.0917Z"></path></svg>