<svg xmlns="http://www.w3.org/2000/svg" width="24.31" height="20" viewBox="0 0 24.31 20"><defs><style>.a{fill:#767676;}</style></defs><path class="a" d="M14.3,0A10,10,0,1,1,4.308,9.969,10,10,0,0,1,14.3,0Zm5.164,10.214c.925,0,1.851,0,2.776,0,.474,0,.657-.188.662-.655,0-.384.008-.768,0-1.151A1.476,1.476,0,0,0,22.26,7.2a2.564,2.564,0,0,0-1.422-.476c-1.116-.047-2.233-.03-3.35-.009a3.129,3.129,0,0,0-1.122.219,1.919,1.919,0,0,0-1.319,1.755,17.6,17.6,0,0,0,0,1.794,1.817,1.817,0,0,0,1.113,1.646,2.735,2.735,0,0,0,1.14.288q2.454.021,4.909,0c.452,0,.572-.16.559-.615-.01-.338-.113-.413-.583-.413q-2.014,0-4.029,0a2.76,2.76,0,0,1-.9-.128,1.24,1.24,0,0,1-.8-.761c-.083-.218-.05-.295.2-.292C17.592,10.221,18.529,10.214,19.466,10.214Zm-13.173.772h0c0,.812,0,1.625,0,2.437,0,.452.164.6.657.612s.662-.142.68-.588a6.371,6.371,0,0,0,.007-.744c-.019-.242.068-.295.3-.293,1.355.011,2.709.01,4.063,0a2.021,2.021,0,0,0,2.193-1.96c.042-.652,0-1.309.01-1.963a1.454,1.454,0,0,0-.831-1.364,2.543,2.543,0,0,0-.923-.315,21.2,21.2,0,0,0-4.289-.043A1.862,1.862,0,0,0,6.287,8.921C6.318,9.608,6.293,10.3,6.293,10.986Z"></path><path class="a" d="M1.771,14.461a1.772,1.772,0,1,1,.03-3.544,1.772,1.772,0,1,1-.03,3.544Z"></path><path class="a" d="M19,9.053c-.778,0-1.555-.009-2.332,0-.243.005-.337-.045-.328-.312.018-.517.149-.707.676-.853a3.7,3.7,0,0,1,1-.115c.81,0,1.621-.031,2.432.021a2.9,2.9,0,0,1,.6.1.791.791,0,0,1,.635,1.017c-.031.186-.152.132-.25.132C20.624,9.054,19.813,9.053,19,9.053Z"></path><path class="a" d="M9.886,11.276c-.666,0-1.332-.006-2,0-.185,0-.25-.043-.252-.24C7.63,10.318,7.6,9.6,7.588,8.875a.9.9,0,0,1,.74-.988,1.812,1.812,0,0,1,.465-.079c.96,0,1.919,0,2.879,0a1.6,1.6,0,0,1,.809.206.784.784,0,0,1,.421.723c0,.5-.007.992-.016,1.489a.973.973,0,0,1-1.1,1.066c-.632-.006-1.263,0-1.9,0Z"></path></svg>