<svg version="1.0" xmlns="http://www.w3.org/2000/svg" width="30" height="20" viewBox="0 0 300.000000 156.000000" preserveAspectRatio="xMidYMid meet">  <g transform="translate(0.000000,156.000000) scale(0.100000,-0.100000)" fill="#636363" stroke="none"> <path d="M1636 1424 c-854 -59 -942 -67 -983 -86 -36 -17 -91 -74 -271 -280 -125 -142 -239 -282 -255 -310 -20 -38 -27 -64 -27 -108 0 -101 26 -134 269 -346 118 -102 229 -193 247 -200 18 -8 57 -14 86 -14 103 0 2014 130 2067 141 42 9 63 20 96 53 67 67 67 68 35 554 -16 235 -31 449 -34 475 -7 63 -40 120 -89 154 -35 24 -51 28 -121 30 -45 1 -503 -28 -1020 -63z m-590 -322 c49 -25 62 -40 70 -80 5 -25 1 -36 -19 -56 -50 -50 -118 -21 -123 50 -1 21 -2 42 -3 47 -2 17 -53 27 -90 17 -50 -13 -75 -42 -75 -87 0 -49 45 -87 162 -136 146 -62 212 -134 212 -231 0 -95 -71 -172 -181 -195 -81 -18 -208 -13 -255 8 -91 42 -115 139 -43 176 39 21 53 19 89 -12 29 -24 32 -31 27 -69 -2 -24 0 -47 6 -53 14 -14 112 -14 140 0 68 35 85 87 44 134 -12 15 -81 57 -152 93 -159 82 -195 120 -195 208 0 90 43 147 146 190 73 31 175 29 240 -4z m302 -75 c6 -6 12 -28 14 -47 3 -33 6 -35 43 -40 32 -4 41 -9 43 -28 5 -32 -15 -52 -49 -52 -34 0 -33 13 -18 -175 5 -77 15 -145 21 -152 11 -13 74 -18 101 -7 13 4 10 15 -14 61 -75 143 7 307 173 342 222 48 375 -200 229 -370 -75 -88 -216 -117 -315 -64 l-48 25 -29 -24 c-41 -35 -93 -49 -157 -44 -46 4 -60 10 -83 36 -29 32 -30 36 -46 257 l-8 100 -30 5 c-24 4 -30 10 -30 31 0 21 17 41 80 93 80 66 104 77 123 53z m1301 -70 c41 -27 81 -96 81 -139 0 -24 -4 -25 -67 -31 -38 -4 -90 -7 -118 -7 -27 0 -56 -4 -64 -9 -23 -15 -4 -80 34 -118 29 -29 39 -33 87 -33 34 0 67 7 91 20 45 24 47 12 5 -35 -95 -109 -276 -107 -352 4 -64 94 -57 228 18 309 66 74 205 92 285 39z m-380 4 c11 -7 13 -23 8 -72 -4 -34 -9 -64 -11 -66 -2 -2 -16 7 -31 21 -19 18 -39 26 -62 26 l-35 0 6 -47 c3 -27 8 -88 12 -136 5 -77 9 -91 31 -111 14 -13 23 -31 21 -42 -4 -21 -61 -31 -184 -33 -73 -1 -83 11 -49 60 23 33 24 36 14 158 -7 89 -14 130 -25 142 -29 32 -13 51 60 76 89 30 104 29 112 -2 6 -23 8 -24 23 -12 20 18 73 46 86 46 6 1 16 -3 24 -8z m-1786 -232 c28 -13 57 -58 57 -89 0 -30 -27 -77 -51 -91 -27 -14 -81 -14 -108 0 -11 7 -28 26 -37 43 -44 85 49 178 139 137z"></path> <path d="M1612 888 c-41 -41 27 -297 98 -368 43 -43 100 -11 100 55 0 74 -59 241 -102 291 -32 36 -73 45 -96 22z"></path> <path d="M2503 945 c-22 -16 -43 -70 -43 -112 0 -22 4 -23 64 -23 36 0 68 5 71 11 12 18 -6 100 -26 120 -23 23 -38 24 -66 4z"></path> </g> </svg>